<svg width="57" height="69" viewBox="0 0 57 69" fill="none" xmlns="http://www.w3.org/2000/svg">
<path fill-rule="evenodd" clip-rule="evenodd" d="M45.8483 0.669889C46.2548 0.458065 46.7562 0.615936 46.968 1.0225C50.548 7.89382 53.3368 15.46 54.7894 23.0947C54.8717 23.5273 54.9577 23.9646 55.0444 24.4061C55.7063 27.7747 56.4152 31.3829 55.9148 34.9199C55.4129 38.4681 54.0181 40.739 51.8036 41.9429C50.6981 42.5439 49.4351 42.8515 48.0633 42.9511C48.0354 43.6472 47.9264 44.3442 47.7191 45.0354C46.9954 47.4488 45.3947 49.5595 43.5052 51.2947C41.6115 53.0338 39.3846 54.4358 37.3293 55.4258C33.7374 57.156 29.9797 57.5429 26.2554 57.0323C26.7464 60.8198 25.1119 64.1449 21.9793 66.4649C18.3057 69.1855 13.7078 68.9822 9.71561 67.8288C9.17188 67.6717 8.63795 67.4917 8.11471 67.289C8.0689 67.567 8.02505 67.8421 7.98422 68.1131C7.91594 68.5664 7.49309 68.8786 7.03977 68.8103C6.58645 68.742 6.2743 68.3191 6.34259 67.8658C6.40753 67.4346 6.47629 67.0128 6.54648 66.597C5.32616 65.9897 4.17484 65.248 3.10546 64.3736C3.07384 64.3477 3.03965 64.32 3.00326 64.2905C2.67557 64.0246 2.16991 63.6144 1.76232 63.1344C1.3247 62.619 0.833483 61.8315 1.00823 60.8978C1.23627 59.6794 2.16364 58.8265 3.13753 58.3552C4.11122 57.8839 5.30535 57.704 6.31052 57.9898C7.42444 58.3064 8.18166 58.9346 8.58762 59.8134C8.97276 60.6472 8.9931 61.6039 8.88129 62.5124C8.75556 63.5339 8.5788 64.5829 8.40051 65.6157C8.97761 65.8525 9.57002 66.0586 10.1764 66.2338C13.958 67.3265 17.9257 67.4011 20.9912 65.1308C23.8227 63.0338 25.1563 60.097 24.5274 56.7321C23.4396 56.5039 22.3573 56.2045 21.2855 55.8451C17.6175 54.6151 14.3969 52.6239 11.4195 50.2896L11.3389 50.2264C9.38261 48.6929 6.81736 46.6821 5.53979 44.1765C5.21968 43.5487 5.01297 42.7844 5.07843 42.0285C5.14626 41.2455 5.51171 40.4724 6.30816 39.9608C7.13328 39.4308 8.10671 39.3388 8.96659 39.4093C9.83529 39.4806 10.6826 39.7248 11.3449 39.9714C14.4664 41.1338 17.2283 43.263 19.5107 45.4961C22.2581 48.1841 24.763 51.4231 25.889 55.2987C29.5518 55.9007 33.1816 55.581 36.6089 53.9301C38.5459 52.9971 40.6299 51.6812 42.3823 50.0719C44.139 48.4587 45.5196 46.5904 46.1289 44.5586C46.2838 44.0421 46.3714 43.514 46.3997 42.9774C45.5947 42.9493 44.7622 42.8675 43.9104 42.7465C41.2703 42.3717 38.7765 41.2815 36.4323 40.2567C35.9941 40.0652 35.5612 39.8759 35.1335 39.6941C30.701 37.8091 27.0461 35.7606 23.4875 32.5126C21.3545 30.5659 19.7417 28.0303 19.524 24.9781C19.4366 23.7532 19.6821 22.7228 20.221 21.8996C20.7573 21.0803 21.5373 20.5379 22.3962 20.2016C24.0839 19.5406 26.1885 19.6263 27.903 20.0285C33.9473 21.4467 38.5902 25.6456 42.2187 30.2633C43.6315 32.0613 45.3903 34.3976 46.6044 36.9278C47.2677 38.3101 47.7863 39.7871 47.9839 41.2922C49.1523 41.2034 50.1631 40.9452 51.0107 40.4844C52.6193 39.6098 53.8162 37.9025 54.2711 34.6873C54.7294 31.448 54.0812 28.134 53.4154 24.7305C53.3293 24.2902 53.2429 23.8484 53.1585 23.405C51.7401 15.95 49.011 8.53689 45.4957 1.78959C45.2838 1.38302 45.4417 0.881713 45.8483 0.669889ZM46.3099 41.3122C46.1256 40.1062 45.6967 38.8737 45.1077 37.646C43.9789 35.2936 42.3208 33.0803 40.9133 31.2891C37.3832 26.7964 33.0343 22.9377 27.5238 21.6448C25.9891 21.2847 24.2591 21.2549 23.0015 21.7474C22.3878 21.9878 21.9174 22.3393 21.61 22.8089C21.3051 23.2746 21.1135 23.9282 21.18 24.8599C21.3588 27.3672 22.6858 29.5332 24.6067 31.2864C27.984 34.369 31.4601 36.3279 35.7832 38.1663C36.2429 38.3618 36.6974 38.56 37.1484 38.7567C39.4963 39.7806 41.7482 40.7627 44.1437 41.1028C44.9072 41.2112 45.6295 41.2826 46.3099 41.3122ZM24.0205 54.9142C22.905 51.7858 20.782 49.0625 18.3497 46.6828C16.1517 44.5322 13.5833 42.5765 10.7656 41.5272C10.1868 41.3117 9.49575 41.1184 8.83095 41.0639C8.15733 41.0087 7.60208 41.1028 7.20538 41.3576C6.90351 41.5515 6.76257 41.8235 6.7324 42.1718C6.69989 42.5472 6.80359 43.0003 7.01879 43.4224C8.11532 45.5729 10.4 47.3807 12.4438 48.9831C15.3274 51.2439 18.3811 53.1201 21.8133 54.2711C22.5483 54.5175 23.2845 54.733 24.0205 54.9142ZM6.8423 64.8815C6.98835 64.0295 7.12611 63.1827 7.23356 62.3096C7.3295 61.5301 7.27711 60.9353 7.08048 60.5096C6.90467 60.129 6.57106 59.7898 5.85653 59.5866C5.32333 59.435 4.55072 59.5156 3.86078 59.8495C3.17105 60.1833 2.73791 60.6804 2.64006 61.2032C2.6078 61.3755 2.6802 61.6504 3.02783 62.0598C3.32924 62.4148 3.71335 62.7276 4.05312 63.0042C4.08805 63.0326 4.12251 63.0607 4.15636 63.0884C4.9978 63.7764 5.89536 64.3745 6.8423 64.8815Z" fill="#181818"/>
</svg>
