<svg width="147" height="44" viewBox="0 0 147 44" fill="none" xmlns="http://www.w3.org/2000/svg">
<path fill-rule="evenodd" clip-rule="evenodd" d="M0 1.60718H30.7724C33.0086 1.60718 34.8214 3.40603 34.8214 5.62504C34.8214 7.84404 33.0086 9.64289 30.7724 9.64289H8.09801V21.9459L20.1385 34.2858H30.7724C33.0086 34.2858 34.8214 36.0846 34.8214 38.3036C34.8214 40.5226 33.0086 42.3215 30.7724 42.3215H16.7074L0 25.1987V1.60718Z" fill="#FE682F"/>
<path fill-rule="evenodd" clip-rule="evenodd" d="M42.3214 -1.17084e-07C43.8007 -1.81748e-07 45 1.20669 45 2.69521L45 7.44551C45 8.93404 43.8007 10.1407 42.3214 10.1407C40.8421 10.1407 39.6428 8.93404 39.6428 7.44551L39.6428 2.69521C39.6428 1.20669 40.8421 -5.24203e-08 42.3214 -1.17084e-07ZM42.3214 14.2509C43.8007 14.2509 45 15.4576 45 16.9461L45 26.4467C45 27.9353 43.8007 29.1419 42.3214 29.1419C40.8421 29.1419 39.6428 27.9353 39.6428 26.4467L39.6428 16.9461C39.6428 15.4576 40.8421 14.2509 42.3214 14.2509ZM42.3214 33.2521C43.8007 33.2521 45 34.4588 45 35.9473L45 40.6976C45 42.1862 43.8007 43.3929 42.3214 43.3929C40.8421 43.3929 39.6428 42.1862 39.6428 40.6976L39.6428 35.9473C39.6428 34.4588 40.8421 33.2521 42.3214 33.2521Z" fill="#FE682F"/>
<path d="M72.0875 32.3633C74.9468 32.3633 76.9742 31.1211 78.6382 29.4688L76.4586 26.3984C75.2047 27.6289 73.7047 28.5547 71.9703 28.5547C69.0523 28.5547 66.0523 25.9531 66.0523 22.5898C66.0523 19.2852 68.9468 16.5898 71.982 16.5898C73.6109 16.5898 75.1578 17.3633 76.4468 18.6289L78.6382 15.6406C76.6578 13.7305 74.4781 12.7578 72.0172 12.7227C66.6968 12.7227 62.2086 17.2344 62.2086 22.5664C62.2086 27.875 66.6382 32.3633 72.0875 32.3633ZM93.823 32H97.9363L88.9012 12.6406H88.784L79.7605 32H83.8621L85.0691 29.3633H92.6277L93.823 32ZM86.5457 26.1289L88.8543 21.0781L91.1512 26.1289H86.5457ZM114.68 32L109.312 24.4883C111.34 23.7734 112.805 21.6523 112.805 19.2266C112.805 15.8281 109.91 13.1094 106.383 13.1094H100.219L100.23 32H104.027V23.0703L110.039 32H114.68ZM104.016 16.8711H106.453C107.73 16.8711 108.891 17.9023 108.891 19.25C108.891 20.5977 107.742 21.6406 106.453 21.6289L104.016 21.6172V16.8711ZM128.353 13.1094H115.251V16.8711H119.904V32H123.712V16.8711H128.353V13.1094ZM129.475 32H133.834L137.409 25.6602L140.995 32H145.354L139.6 22.1797L145.002 13.1094H140.643L137.42 18.8281L134.186 13.1094H129.827L135.217 22.1914L129.475 32Z" fill="#1A1A1A"/>
</svg>
